<?xml version="1.0" encoding="UTF-8"?>
<svg xmlns="http://www.w3.org/2000/svg" xmlns:xlink="http://www.w3.org/1999/xlink" width="809pt" height="809pt" viewBox="0 0 809 809" version="1.1">
<g id="surface1">
<path style=" stroke:none;fill-rule:nonzero;fill:rgb(57.998657%,70.199585%,87.5%);fill-opacity:1;" d="M 371.210938 37.261719 C 376.691406 37 382.210938 36.929688 387.679688 37.46875 C 393.511719 38.070312 399.128906 40.03125 405 40.261719 C 410.058594 40.5 414.96875 37.128906 419.988281 38.910156 C 425.039062 40.800781 428.398438 45.28125 432.089844 48.980469 C 437.679688 55.058594 444.691406 59.589844 450.300781 65.640625 C 457.878906 73.761719 465.839844 81.519531 473.128906 89.910156 C 485.308594 103.71875 498.820312 116.351562 510.160156 130.910156 C 514.789062 136.929688 519.511719 142.890625 524.128906 148.929688 C 530.609375 157.53125 536.121094 166.800781 542.289062 175.609375 C 551.421875 189.058594 562.53125 201.058594 571.28125 214.789062 C 577.191406 224.171875 583.089844 233.679688 586.941406 244.121094 C 589.019531 249.738281 591.648438 255.128906 594.570312 260.351562 C 596.378906 263.988281 598.589844 268.460938 596.5 272.441406 C 593.78125 276.519531 588.710938 278.390625 583.980469 278.660156 C 577.890625 278.898438 572.960938 274.878906 567.929688 272.078125 C 555.371094 264.511719 540.691406 259.96875 525.929688 261.019531 C 516.769531 261.410156 508 264.359375 498.929688 265.429688 C 495.429688 265.890625 491.96875 266.628906 488.601562 267.671875 C 481.78125 269.769531 474.730469 270.96875 467.878906 272.96875 C 446.058594 279.25 424.710938 287.289062 404.359375 297.390625 C 393.640625 303.140625 383.5 309.890625 373.070312 316.140625 C 364.039062 321.460938 356.328125 328.640625 348.859375 335.921875 C 339.230469 345.328125 330.230469 355.480469 322.769531 366.71875 C 312.988281 381.148438 305.011719 397.050781 301.230469 414.148438 C 298.398438 425.898438 299.109375 438.109375 300.011719 450.050781 C 301.171875 465.460938 305.03125 480.808594 312.609375 494.351562 C 318.371094 504.789062 326 514.160156 334.78125 522.199219 C 341.089844 527.980469 349.558594 530.75 357.949219 531.578125 C 360.679688 532.089844 363.941406 531.890625 366.050781 534.011719 C 367.691406 536.371094 366.898438 539.960938 364.320312 541.328125 C 357.410156 545.578125 348.839844 545.511719 341 544.949219 C 326.710938 543.851562 312.308594 546.238281 298.078125 543.949219 C 287.75 542.230469 277.371094 540.828125 267.089844 538.789062 C 246.699219 534.101562 226.648438 527.441406 207.949219 517.96875 C 190.769531 509.03125 174.828125 497.640625 161.101562 483.949219 C 142.519531 465.578125 126.761719 444.339844 114.851562 421.070312 C 103.371094 398.300781 94.828125 374 89.898438 348.96875 C 85.78125 328.628906 83.46875 307.800781 84.929688 287.050781 C 85.871094 272.199219 87.660156 257.289062 91.980469 243.011719 C 95.191406 233.558594 97.28125 223.710938 101.558594 214.648438 C 107.660156 202.191406 112.980469 189.28125 120.769531 177.730469 C 132.199219 159.699219 146.261719 143.398438 162.011719 129.011719 C 175.621094 116.449219 189.390625 103.808594 205.410156 94.339844 C 218.621094 86.371094 231.980469 78.621094 245.730469 71.640625 C 256.589844 66.070312 268.128906 62.03125 279.441406 57.5 C 299.5 49.261719 320.589844 43.769531 341.929688 40.070312 C 351.601562 38.328125 361.421875 37.808594 371.210938 37.261719 M 399 66.859375 C 389.988281 67.371094 381.019531 68.238281 372.03125 68.980469 C 362.699219 69.640625 353.820312 72.871094 344.621094 74.339844 C 334.359375 75.871094 324.558594 79.378906 314.421875 81.488281 C 305.441406 83.269531 297.730469 88.578125 288.980469 91.03125 C 282.429688 92.550781 276.371094 95.441406 270.390625 98.421875 C 256.429688 104.738281 243.261719 112.609375 229.621094 119.570312 C 224 123.171875 219.109375 127.789062 213.570312 131.511719 C 202.378906 139.101562 191.78125 147.640625 182.601562 157.601562 C 169.058594 172.5 154.949219 187.179688 144.53125 204.539062 C 140.53125 210.929688 136.46875 217.300781 132.898438 223.941406 C 128.738281 231.511719 126.148438 239.78125 122.648438 247.640625 C 118.71875 256.230469 117.441406 265.679688 116.179688 274.941406 C 114.910156 284.941406 112.839844 294.878906 112.691406 304.988281 C 112.339844 321.441406 114.359375 337.820312 116.988281 354.03125 C 118.128906 361.359375 120.390625 368.449219 122.421875 375.570312 C 125.621094 388 131.839844 399.308594 136.980469 410.980469 C 143.050781 425.039062 151.5 437.980469 161.261719 449.75 C 168.140625 457.839844 174.921875 466.058594 182.390625 473.628906 C 196.808594 488.519531 215.300781 498.660156 234.128906 506.878906 C 250.660156 514.46875 268.128906 519.699219 285.671875 524.359375 C 292 526.019531 298.46875 528.480469 305.109375 527.128906 C 303.859375 521.398438 298.96875 517.769531 295.808594 513.140625 C 291.730469 507.328125 288.390625 501.03125 285.320312 494.640625 C 279.558594 482.238281 274.390625 469.449219 271.78125 455.980469 C 268.710938 441.898438 268.621094 427.378906 269.050781 413.039062 C 269.378906 401.710938 271.941406 390.53125 276.011719 379.980469 C 285.96875 353.359375 300.558594 327.949219 321.398438 308.359375 C 331.371094 298.558594 341.949219 289.300781 353.449219 281.320312 C 395.109375 253.5 443.019531 236.320312 491.761719 225.769531 C 501.988281 223.570312 512.5 223.359375 522.921875 223.449219 C 528.300781 223.429688 533.691406 225.171875 539.019531 223.710938 C 536.820312 212.960938 528.710938 205.089844 521.871094 197.058594 C 506.261719 179.25 491.960938 160.371094 477.210938 141.859375 C 460.839844 121.28125 443.28125 101.671875 427.140625 80.898438 C 422.828125 75.289062 418.578125 68.691406 411.441406 66.488281 C 407.328125 65.660156 403.128906 66.730469 399 66.859375 M 96.300781 515.351562 C 104.980469 514.359375 113.851562 514.441406 122.390625 516.398438 C 130.988281 518.148438 139.089844 521.578125 147.171875 524.878906 C 168.191406 533.769531 190.808594 537.710938 213.03125 542.328125 C 232.910156 546.238281 252.289062 552.21875 271.898438 557.230469 C 300.011719 564.019531 328.128906 571.238281 356.910156 574.601562 C 381.519531 577.71875 406.109375 581.589844 430.949219 582.289062 C 473.960938 583.488281 516.980469 584.171875 560 583.640625 C 570.179688 583.449219 580.410156 583.140625 590.550781 584.269531 C 596.390625 585.238281 602.628906 586.738281 607.011719 591 C 610.160156 593.941406 610.71875 599.480469 607.71875 602.710938 C 605.359375 605.328125 601.949219 606.648438 598.628906 607.578125 C 586.949219 610.511719 574.769531 609.5 562.941406 611.308594 C 552.699219 612.820312 542.320312 612.578125 532.011719 612.601562 C 519.671875 612.289062 507.300781 613.101562 494.980469 612.039062 C 484.691406 611.160156 474.25 612.839844 464.089844 610.558594 C 452.460938 608.988281 440.671875 610.03125 428.988281 609.070312 C 415.121094 607.929688 401.21875 606.921875 387.488281 604.621094 C 370.671875 601.648438 353.621094 600.101562 336.929688 596.378906 C 313 591.421875 289.308594 585.410156 265.609375 579.5 C 249.261719 574.488281 232.800781 569.761719 215.96875 566.648438 C 198.699219 563.621094 181.871094 558.46875 164.578125 555.558594 C 156.578125 554.359375 148.269531 553.328125 140.308594 555.378906 C 134.019531 556.910156 128.671875 560.769531 123.558594 564.570312 C 119.828125 567.449219 115.898438 570.328125 113.410156 574.421875 C 108.78125 582.421875 104.558594 590.828125 102.910156 600.011719 C 100.289062 613.691406 100.21875 628.628906 106.640625 641.328125 C 110.03125 648.441406 110.75 656.390625 112.691406 663.949219 C 115.710938 675.289062 118.761719 686.699219 123.628906 697.410156 C 124.929688 700.539062 126.53125 704 125.488281 707.449219 C 124.550781 710.488281 121.058594 711.988281 118.058594 711.539062 C 110.550781 710.699219 104.839844 705.28125 99.019531 701 C 94.03125 697.328125 89.558594 692.890625 86.421875 687.53125 C 77.429688 673.089844 74.808594 656.03125 70.128906 639.949219 C 66.929688 628.808594 63.339844 617.621094 62.710938 605.96875 C 62.140625 595.929688 63.988281 586 65.511719 576.128906 C 67.738281 563.390625 69.710938 550.308594 75.539062 538.609375 C 78.378906 533.179688 81.171875 527.691406 84.730469 522.691406 C 87.429688 518.851562 91.609375 516 96.300781 515.351562 "/>
<path style=" stroke:none;fill-rule:nonzero;fill:rgb(14.498901%,31.799316%,60.398865%);fill-opacity:1;" d="M 464.351562 294.558594 C 468.769531 293.578125 473.351562 295.421875 476.53125 298.5 C 480.660156 302.410156 484.261719 306.878906 487.621094 311.460938 C 491.621094 316.878906 490.710938 324.101562 489.28125 330.261719 C 487.140625 338.691406 484.171875 347.570312 486.621094 356.269531 C 488.449219 358.289062 491.328125 358.730469 493.921875 358.851562 C 505.578125 359.230469 517.339844 359.730469 528.78125 362.230469 C 532.859375 363.390625 538.019531 364.871094 539.519531 369.351562 C 540.761719 373.96875 536.339844 377.328125 532.511719 378.648438 C 523.679688 381.78125 514.160156 381.820312 504.960938 383.011719 C 499.109375 383.839844 493.011719 383.570312 487.359375 385.488281 C 485.179688 386.320312 485.238281 389.03125 485.011719 390.960938 C 484.058594 415.339844 487.820312 439.570312 492.269531 463.46875 C 494.03125 474.898438 496.699219 486.410156 495.300781 498.039062 C 494.671875 503.910156 498.570312 509.199219 497.570312 515.078125 C 496.921875 519.5 496.269531 524.671875 492.609375 527.699219 C 487.109375 530.761719 480.101562 529.289062 474.941406 526.171875 C 467.210938 521 462.460938 512.589844 458.949219 504.191406 C 454.429688 493.539062 452.558594 482.058594 450.011719 470.839844 C 445.050781 448.160156 440.140625 425.300781 439.039062 402.039062 C 438.710938 397.160156 439.421875 392.210938 438.570312 387.371094 C 437.660156 384.199219 433.941406 383.460938 431.089844 383.21875 C 425.429688 382.519531 419.699219 384.75 414.140625 383.109375 C 408.511719 381.480469 402.5 378.71875 399.941406 373.078125 C 397.769531 368.378906 393.421875 363.699219 394.941406 358.179688 C 396.890625 354.628906 401.660156 355.109375 405.070312 355.460938 C 414.660156 356.96875 424.179688 359.570312 433.960938 359.351562 C 436.558594 359.210938 439.789062 358.871094 441.171875 356.300781 C 443.019531 352.890625 443.308594 348.941406 444.171875 345.21875 C 446.96875 331.039062 451.878906 317.429688 456.820312 303.890625 C 458.339844 300.210938 460.148438 295.78125 464.351562 294.558594 M 762.378906 623.421875 C 765.191406 622.378906 769.328125 621.839844 771.109375 624.878906 C 772.679688 628.109375 771.78125 631.851562 771.011719 635.191406 C 770.121094 639.148438 768.429688 642.871094 766.53125 646.441406 C 763.191406 652.570312 762.21875 659.558594 760.390625 666.210938 C 758.570312 673.089844 755.179688 679.710938 755.441406 687 C 755.160156 693.601562 757.109375 701.058594 752.890625 706.828125 C 746.648438 715.269531 736.960938 720.238281 727.648438 724.558594 C 713.328125 729.671875 699.039062 735.128906 684.078125 738.078125 C 675.800781 739.539062 667.410156 740.511719 659 740.828125 C 650.289062 741.179688 641.671875 739.761719 633.03125 738.929688 C 613.699219 736.871094 594.070312 734.878906 575.71875 728.089844 C 564.839844 724.628906 553.558594 722.640625 542.679688 719.199219 C 523.601562 713.980469 504.789062 707.808594 485.890625 702 C 476.601562 699.210938 466.949219 697.929688 457.519531 695.71875 C 450.429688 694.101562 443.320312 692.371094 436.058594 691.691406 C 418.109375 690.050781 400.050781 689.378906 382.03125 689.890625 C 368.351562 691.53125 354.441406 691.820312 341.039062 695.308594 C 320.878906 700.441406 300.339844 705.140625 281.699219 714.699219 C 267.308594 722.25 252.730469 729.449219 238.671875 737.609375 C 229.46875 742.46875 220.070312 746.949219 210.949219 751.96875 C 203.128906 755.921875 195.378906 760.140625 187.039062 762.929688 C 173.800781 767.398438 159.929688 769.828125 145.988281 770.578125 C 131.351562 771.460938 116.671875 773.25 102 772.078125 C 90.730469 771.261719 79.910156 767.890625 69.058594 764.980469 C 62.660156 763.308594 56.921875 759.949219 50.929688 757.25 C 46.980469 755.449219 42.910156 753.308594 40.488281 749.550781 C 38.148438 745.839844 36.46875 741.511719 36.550781 737.078125 C 36.621094 734.730469 37.789062 731.96875 40.308594 731.410156 C 46.820312 729.71875 53.480469 731.839844 60.019531 732.320312 C 77.230469 733.539062 94.78125 731.320312 110.910156 725.078125 C 119.351562 721.710938 128.011719 718.660156 135.671875 713.671875 C 142.578125 709.25 149.160156 704.308594 156.308594 700.289062 C 176.949219 688.261719 196.351562 674.039062 218.148438 664.101562 C 233.710938 656.679688 250.429688 652.25 267.058594 647.929688 C 279.609375 644.78125 292.371094 642.609375 305.148438 640.589844 C 316.011719 638.910156 327.039062 639.019531 337.988281 639.519531 C 364.199219 640.5 390.179688 644.328125 416.058594 648.359375 C 437.460938 651.320312 458.390625 656.71875 479.449219 661.410156 C 503.480469 666.5 527.871094 669.601562 552.140625 673.351562 C 573.011719 676.308594 593.808594 680.339844 614.941406 680.789062 C 639.589844 681.71875 664.449219 677.550781 687.390625 668.460938 C 700.480469 663.339844 712.398438 655.769531 723.980469 647.910156 C 731.519531 642.761719 739.410156 638.148438 746.96875 633.039062 C 751.910156 629.550781 756.691406 625.640625 762.378906 623.421875 "/>
</g>
</svg>
