<?xml version="1.0" encoding="UTF-8"?>
<svg width="1217px" height="601px" viewBox="0 0 1217 601" version="1.1" xmlns="http://www.w3.org/2000/svg" xmlns:xlink="http://www.w3.org/1999/xlink">
    <title>teilchen_im_kondensator</title>
    <g id="teilchen_im_kondensator" stroke="none" stroke-width="1" fill="none" fill-rule="evenodd">
        <g transform="translate(32.887, 20.5)">
            <g id="Group" transform="translate(71.863, 238.85)">
                <line x1="4.76" y1="244.99" x2="0" y2="245.1" id="Path" stroke="#3A393B"></line>
                <line x1="239.99" y1="299.15" x2="240.09" y2="303.64" id="Path" stroke="#3A393B"></line>
                <line x1="678.92" y1="5.68434189e-14" x2="678.94" y2="6.13" id="Path" stroke="#15476F"></line>
                <line x1="661.5" y1="245" x2="657" y2="245.18" id="Path" stroke="#3A393B"></line>
                <line x1="419.02" y1="303.64" x2="419" y2="299.14" id="Path" stroke="#3A393B"></line>
                <path d="M1035.91,2.38 C1036.89,2.93333333 1036.86333,3.43666667 1035.83,3.89" id="Path" stroke="#15476F"></path>
            </g>
            <path d="M76.6229545,483.84 L71.8629545,483.95 L55.3529545,483.98 C55.0129545,483.98 54.8429545,483.81 54.8429545,483.47 L54.8429545,0.5 C54.8429545,0.166666667 55.0129545,0 55.3529545,0 L92.8729545,0 C93.3796212,0 93.6329545,0.253333333 93.6329545,0.76 L93.6329545,483.48 C93.6329545,483.8 93.4729545,483.956667 93.1529545,483.95 L76.6229545,483.84 Z" id="Path" fill="#1A1718" fill-rule="nonzero"></path>
            <path d="M750.782954,238.85 L750.802954,244.98 L750.622954,483.46 C750.622954,483.736142 750.399097,483.96 750.122954,483.96 L733.362954,483.85 L728.862954,484.03 L712.272954,484 C711.812954,483.993333 711.586288,483.76 711.592954,483.3 C712.002954,403.66 712.102954,324.19 711.352954,244.75 C711.352954,244.416667 711.186288,244.25 710.852954,244.25 L703.862954,244.25 C703.529621,244.25 703.362954,244.083333 703.362954,243.75 L703.362954,240.25 C703.362954,239.916667 703.529621,239.75 703.862954,239.75 L710.822954,239.75 C711.222954,239.75 711.422954,239.55 711.422954,239.15 C712.012954,159.63 711.122954,80.1 711.742954,0.61 C711.742954,0.203333333 711.949621,0 712.362954,0 L750.062954,0 C750.422954,0 750.602954,0.18 750.602954,0.54 L750.782954,238.85 Z" id="Path" fill="#1A1718" fill-rule="nonzero"></path>
            <path d="M747.402954,238.99 L731.732954,239 C731.326288,239.006667 731.122954,239.21 731.122954,239.61 L731.112954,244.42 C731.106288,244.82 731.302954,245.023333 731.702954,245.03 L747.322954,245.08" id="Path" stroke="#5388B1" stroke-width="2"></path>
            <rect id="Rectangle" fill="#C7C8CA" fill-rule="nonzero" x="57.8729545" y="3" width="32.74" height="222" rx="0.44"></rect>
            <rect id="Rectangle" fill="#C7C8CA" fill-rule="nonzero" x="714.612954" y="3" width="33" height="222" rx="0.82"></rect>
            <path d="M791.812954,197.97 C797.502954,199.06 800.422954,203.59 799.812954,209.24 C798.432954,221.79 783.182954,220.83 773.452954,220.38 C773.086288,220.36 772.906288,220.17 772.912776,219.81 L773.022954,177.94 C773.022954,177.6 773.192954,177.406667 773.532954,177.36 C781.402954,176.38 796.722954,175.5 798.262954,185.45 C799.072954,190.76 796.532954,195.1 791.742954,197.4 C791.622016,197.453435 791.550318,197.579745 791.566434,197.710976 C791.58255,197.842208 791.68268,197.947416 791.812954,197.97 L791.812954,197.97 Z" id="Path" fill="#1A1718" fill-rule="nonzero"></path>
            <path d="M15.9329545,177.249989 L21.2529545,177.249989 C21.4137653,177.248762 21.5579434,177.348886 21.6129545,177.5 L37.1229545,219.99 C37.1649706,220.10534 37.1486817,220.233873 37.079222,220.335086 C37.0097622,220.436298 36.895688,220.497723 36.7729545,220.500011 L32.0229545,220.500011 C31.8621437,220.501238 31.7179656,220.401114 31.6629545,220.25 L27.9929545,210 C27.9379434,209.848886 27.7937653,209.748762 27.6329545,209.75 L9.0429545,209.75 C8.88214371,209.748762 8.73796558,209.848886 8.6829545,210 L5.0329545,220.25 C4.97794341,220.401114 4.83376528,220.501238 4.6729545,220.500011 L0.372954496,220.500011 C0.25022102,220.497723 0.136146804,220.436298 0.0666870405,220.335086 C-0.0027727225,220.233873 -0.019061609,220.10534 0.0229544955,219.99 L15.5729545,177.5 C15.6279656,177.348886 15.7721437,177.248762 15.9329545,177.249989 L15.9329545,177.249989 Z" id="Path" fill="#1A1718" fill-rule="nonzero"></path>
            <path d="M778.082954,181.34 C778.082954,181.113563 778.266518,180.93 778.492954,180.93 L784.602954,180.94 C789.317718,180.947466 793.136008,183.964497 793.132956,187.68 L793.132956,189.38 C793.131492,191.16552 792.229726,192.876805 790.62616,194.137151 C789.022595,195.397497 786.848679,196.103591 784.582954,196.100014 L778.472954,196.09 C778.246518,196.09 778.062954,195.906437 778.062954,195.68 L778.082954,181.34 Z" id="Path" fill="#FFFFFF" fill-rule="nonzero"></path>
            <path d="M18.2929545,182.84 C18.3055438,182.803824 18.3396508,182.77958 18.3779545,182.77958 C18.4162582,182.77958 18.4503652,182.803824 18.4629545,182.84 L26.3929545,205.26 C26.5062878,205.586667 26.3929545,205.75 26.0529545,205.75 L10.9229545,205.75 C10.4562878,205.75 10.2996212,205.53 10.4529545,205.09 L18.2929545,182.84 Z" id="Path" fill="#FFFFFF" fill-rule="nonzero"></path>
            <path d="M777.942954,200.76 C777.942954,200.483858 778.166812,200.26 778.442954,200.26 L785.122954,200.229909 C787.633353,200.220314 790.043977,200.983131 791.823942,202.35046 C793.603907,203.717788 794.607231,205.577487 794.61298,207.52 L794.61298,209.12 C794.624946,213.160221 790.404317,216.449895 785.182954,216.47 L778.502954,216.5 C778.226812,216.5 778.002954,216.276142 778.002954,216 L777.942954,200.76 Z" id="Path" fill="#FFFFFF" fill-rule="nonzero"></path>
            <path d="M1107.77295,241.23 C1108.75295,241.783333 1108.72629,242.286667 1107.69295,242.74 L1073.00295,262.79 C1072.82026,262.897886 1072.5937,262.899366 1072.40961,262.793876 C1072.22552,262.688385 1072.11225,262.492172 1072.11295,262.28 L1072.11295,245.28 C1072.11295,244.966667 1071.95629,244.81 1071.64295,244.81 L750.802954,244.98 L750.782954,238.85 C775.562954,239.39 800.212954,239.07 824.932954,239.05 C907.239621,238.983333 989.482954,238.973333 1071.66295,239.02 C1071.81057,239.020024 1071.952,238.960707 1072.05544,238.855389 C1072.15888,238.750071 1072.21564,238.607594 1072.21295,238.46 L1072.07295,221.28 C1072.07263,221.144076 1072.14493,221.01833 1072.26256,220.950227 C1072.38019,220.882124 1072.52524,220.882038 1072.64295,220.95 L1107.77295,241.23 Z" id="Path" fill="#0F77C5" fill-rule="nonzero"></path>
            <path d="M90.3629545,255 C90.3629545,255.414214 90.0271681,255.75 89.6129545,255.75 L58.6129545,255.75 C58.1987409,255.75 57.8629545,255.414214 57.8629545,255 L57.8629545,229 C57.8629545,228.585786 58.1987409,228.25 58.6129545,228.25 L89.6129545,228.25 C90.0271681,228.25 90.3629545,228.585786 90.3629545,229 L90.3629545,255 Z" id="Path" fill="#97989D" fill-rule="nonzero"></path>
            <path d="M747.402954,238.99 L731.732954,239 C731.326288,239.006667 731.122954,239.21 731.122954,239.61 L731.112954,244.42 C731.106288,244.82 731.302954,245.023333 731.702954,245.03 L747.322954,245.08 L747.312954,255.1 C747.312954,255.533333 747.092954,255.75 746.652954,255.75 L715.742954,255.75 C715.256944,255.75 714.862954,255.356011 714.862954,254.87 L714.862954,244.75 C714.862954,244.416667 715.029621,244.25 715.362954,244.25 L725.362954,244.25 C725.696288,244.25 725.862954,244.083333 725.862954,243.75 L725.862954,240.25 C725.862954,239.916667 725.696288,239.75 725.362954,239.75 L715.612954,239.75 C715.198741,239.75 714.862954,239.414214 714.862954,239 L714.862954,228.75 C714.862954,228.416667 715.029621,228.25 715.362954,228.25 L746.652954,228.25 C747.099621,228.25 747.322954,228.473333 747.322954,228.92 L747.402954,238.99 Z" id="Path" fill="#97989D" fill-rule="nonzero"></path>
            <path d="M747.402954,238.99 L747.322954,245.08 L731.702954,245.03 C731.302954,245.023333 731.106288,244.82 731.112954,244.42 L731.122954,239.61 C731.122954,239.21 731.326288,239.006667 731.732954,239 L747.402954,238.99 Z" id="Path" fill="#0F77C5" fill-rule="nonzero"></path>
            <rect id="Rectangle" fill="#1A1718" fill-rule="nonzero" x="74.1929545" y="239.75" width="11.42" height="4.5" rx="0.36"></rect>
            <rect id="Rectangle" fill="#1A1718" fill-rule="nonzero" x="96.8529545" y="239.75" width="22.5" height="4.5" rx="0.43"></rect>
            <rect id="Rectangle" fill="#1A1718" fill-rule="nonzero" x="130.372954" y="239.75" width="22.5" height="4.5" rx="0.43"></rect>
            <rect id="Rectangle" fill="#1A1718" fill-rule="nonzero" x="164.122954" y="239.75" width="22.5" height="4.5" rx="0.43"></rect>
            <rect id="Rectangle" fill="#1A1718" fill-rule="nonzero" x="197.862954" y="239.75" width="22.5" height="4.5" rx="0.26"></rect>
            <rect id="Rectangle" fill="#1A1718" fill-rule="nonzero" x="231.602954" y="239.75" width="22.5" height="4.5" rx="0.43"></rect>
            <rect id="Rectangle" fill="#1A1718" fill-rule="nonzero" x="265.352954" y="239.75" width="22.5" height="4.5" rx="0.43"></rect>
            <rect id="Rectangle" fill="#1A1718" fill-rule="nonzero" x="299.062954" y="239.75" width="22.34" height="4.5" rx="0.27"></rect>
            <rect id="Rectangle" fill="#1A1718" fill-rule="nonzero" x="332.612954" y="239.75" width="22.5" height="4.5" rx="0.31"></rect>
            <rect id="Rectangle" fill="#1A1718" fill-rule="nonzero" x="366.362954" y="239.75" width="22.5" height="4.5" rx="0.26"></rect>
            <rect id="Rectangle" fill="#1A1718" fill-rule="nonzero" x="400.112954" y="239.75" width="22.5" height="4.5" rx="0.31"></rect>
            <rect id="Rectangle" fill="#1A1718" fill-rule="nonzero" x="433.862954" y="239.75" width="22.36" height="4.5" rx="0.3"></rect>
            <rect id="Rectangle" fill="#1A1718" fill-rule="nonzero" x="467.362954" y="239.75" width="22.5" height="4.5" rx="0.31"></rect>
            <rect id="Rectangle" fill="#1A1718" fill-rule="nonzero" x="501.122954" y="239.75" width="22.5" height="4.5" rx="0.43"></rect>
            <rect id="Rectangle" fill="#1A1718" fill-rule="nonzero" x="534.862954" y="239.75" width="22.5" height="4.5" rx="0.26"></rect>
            <rect id="Rectangle" fill="#1A1718" fill-rule="nonzero" x="568.602954" y="239.75" width="22.5" height="4.5" rx="0.43"></rect>
            <rect id="Rectangle" fill="#1A1718" fill-rule="nonzero" x="602.312954" y="239.75" width="22.5" height="4.5" rx="0.43"></rect>
            <rect id="Rectangle" fill="#1A1718" fill-rule="nonzero" x="635.872954" y="239.75" width="22.5" height="4.5" rx="0.43"></rect>
            <rect id="Rectangle" fill="#1A1718" fill-rule="nonzero" x="669.612954" y="239.75" width="22.5" height="4.5" rx="0.31"></rect>
            <path d="M1107.69295,242.74 C1108.72629,242.286667 1108.75295,241.783333 1107.77295,241.23 C1107.71962,240.796667 1107.70295,240.456667 1107.72295,240.21 C1107.75629,239.923333 1107.98629,239.78 1108.41295,239.78 C1115.48629,239.713333 1122.56295,239.713333 1129.64295,239.78 C1129.96962,239.78 1130.12962,239.943333 1130.12315,240.27 L1130.10295,243.75 C1130.10295,244.083333 1129.93629,244.250001 1129.60295,244.250001 L1108.33295,244.250001 C1108.02399,244.250414 1107.76894,244.008553 1107.75295,243.7 L1107.69295,242.74 Z" id="Path" fill="#1A1718" fill-rule="nonzero"></path>
            <rect id="Rectangle" fill="#1A1718" fill-rule="nonzero" x="1141.36295" y="239.75" width="22.5" height="4.5" rx="0.31"></rect>
            <rect id="Rectangle" fill="#C7C8CA" fill-rule="nonzero" x="57.8729545" y="258.83" width="32.74" height="222.16" rx="0.82"></rect>
            <rect id="Rectangle" fill="#C7C8CA" fill-rule="nonzero" x="714.612954" y="258.78" width="33" height="222.22" rx="1.18"></rect>
            <path d="M894.282954,266.26 L890.412954,269.7 C890.293251,269.807841 890.132281,269.857771 889.972561,269.836603 C889.812841,269.815436 889.670435,269.725299 889.582954,269.59 L889.142954,268.91 C888.916288,268.563333 888.926288,268.223333 889.172954,267.89 C891.462954,264.74 895.322954,261.25 899.602954,261.45 C899.949621,261.463333 900.229621,261.606667 900.442954,261.88 C901.349621,263.033333 901.662954,264.243333 901.382954,265.51 C900.202954,270.783333 899.172954,276.09 898.292954,281.43 C897.642954,285.31 897.792954,289.45 902.342954,290.47 C913.432954,292.96 916.532954,275.55 916.322954,267.76 C916.262954,265.65 915.172954,264.06 912.982954,264.2 C912.501479,264.241883 912.060131,263.930004 911.938843,263.462177 C911.817554,262.99435 912.051778,262.507323 912.492954,262.31 C916.712954,260.32 921.552954,261.1 921.592954,266.8 C921.672954,275.57 917.732954,287.73 909.572954,292.24 C905.062954,294.73 897.052954,295.73 893.952954,290.6 C891.052954,285.79 894.472954,272.61 896.012954,267.36 C896.14154,266.905077 895.956347,266.419688 895.557414,266.166031 C895.158482,265.912375 894.64037,265.950576 894.282954,266.26 L894.282954,266.26 Z" id="Path" fill="#0F77C5" fill-rule="nonzero"></path>
            <path d="M939.052954,300.78 C938.921389,300.814847 938.829766,300.933897 938.829766,301.07 C938.829766,301.206103 938.921389,301.325153 939.052954,301.36 C947.182954,303.88 943.632954,313.24 936.792954,314.42 C935.319621,314.68 932.456288,314.67 928.202954,314.39 C927.809621,314.363333 927.612954,314.153333 927.612954,313.76 L927.612954,290 C927.612954,289.62 927.799621,289.41 928.172954,289.37 C932.002954,288.96 939.042954,288.52 941.602954,291.76 C943.662954,294.38 942.802954,299.62 939.052954,300.78 Z" id="Path" fill="#0F77C5" fill-rule="nonzero"></path>
            <path d="M930.852954,292 C930.852954,291.701766 931.094721,291.46 931.392954,291.46 L934.142954,291.449984 C935.588752,291.446918 936.976357,291.881415 938.000367,292.657863 C939.024378,293.43431 939.600867,294.489071 939.60296,295.59 L939.60296,296.19 C939.607316,298.481356 937.172083,300.343593 934.162954,300.35 L931.412954,300.36 C931.269738,300.36 931.132386,300.303107 931.031117,300.201838 C930.929847,300.100568 930.872954,299.963217 930.872954,299.82 L930.852954,292 Z" id="Path" fill="#FFFFFF" fill-rule="nonzero"></path>
            <path d="M930.832954,303.45 C930.832954,302.975035 931.21799,302.59 931.692954,302.59 L933.832954,302.59 C937.444897,302.59 940.372954,304.537561 940.372954,306.94 L940.372954,307.92 C940.372954,310.322439 937.444897,312.27 933.832954,312.27 L931.692954,312.27 C931.21799,312.27 930.832954,311.884965 930.832954,311.41 L930.832954,303.45 Z" id="Path" fill="#FFFFFF" fill-rule="nonzero"></path>
            <path d="M76.6229545,483.84 L76.6129545,536.83 C76.6129545,537.476173 77.1367813,538 77.7829545,538 L311.852954,538 L311.952954,542.49 L72.3929545,542.49 C72.1002436,542.49 71.8629545,542.257188 71.8629545,541.97 L71.8629545,483.95 L76.6229545,483.84 Z" id="Path" fill="#595A5D" fill-rule="nonzero"></path>
            <path d="M733.362954,483.85 L733.352954,541.96 C733.352954,542.313333 733.176288,542.49 732.822954,542.49 L490.882954,542.49 L490.862954,537.99 L727.892954,538 C728.434194,538 728.872954,537.561239 728.872954,537.02 L728.862954,484.03 L733.362954,483.85 Z" id="Path" fill="#595A5D" fill-rule="nonzero"></path>
            <path d="M311.952954,542.49 L311.852954,538 C315.092954,521.6 334.192954,514.5 345.692954,527.68 C354.152954,537.38 350.622954,552.39 339.102954,557.74 C327.292954,563.23 313.962954,555.52 311.952954,542.49 Z" id="Path" fill="#1A1718" fill-rule="nonzero"></path>
            <path d="M490.862954,537.99 L490.882954,542.49 C487.522954,563.44 458.542954,565.68 452.912954,544.85 C451.799621,540.736667 452.122954,536.72 453.882954,532.8 C462.082954,514.57 487.822954,518.34 490.862954,537.99 Z" id="Path" fill="#1A1718" fill-rule="nonzero"></path>
            <circle id="Oval" fill="#FFFFFF" fill-rule="nonzero" cx="331.102954" cy="540.21" r="14.59"></circle>
            <circle id="Oval" fill="#FFFFFF" fill-rule="nonzero" cx="471.672954" cy="540.21" r="14.59"></circle>
            <path d="M469.422954,495.5 L457.752954,495.5 C457.537563,495.5 457.362954,495.325391 457.362954,495.11 L457.362954,491.89 C457.362954,491.674609 457.537563,491.5 457.752954,491.5 L469.472954,491.5 C469.688346,491.5 469.862954,491.325391 469.862954,491.11 L469.862954,478.64 C469.862954,478.424609 470.037563,478.25 470.252954,478.25 L474.222954,478.25 C474.438346,478.25 474.612954,478.424609 474.612954,478.64 L474.612954,491.11 C474.612954,491.325391 474.787563,491.5 475.002954,491.5 L486.722954,491.5 C486.938346,491.5 487.112954,491.674609 487.112954,491.89 L487.112954,495.11 C487.112954,495.325391 486.938346,495.5 486.722954,495.5 L475.002954,495.5 C474.787563,495.5 474.612954,495.674609 474.612954,495.89 L474.612954,508.36 C474.612954,508.575391 474.438346,508.75 474.222954,508.75 L470.372954,508.75 C470.161409,508.75 469.988379,508.581476 469.982954,508.37 L469.812954,495.88 C469.80753,495.668524 469.6345,495.49993 469.422954,495.5 L469.422954,495.5 Z" id="Path" fill="#1A1718" fill-rule="nonzero"></path>
            <rect id="Rectangle" fill="#1A1718" fill-rule="nonzero" x="316.112954" y="490.5" width="30" height="5" rx="0.51"></rect>
        </g>
    </g>
</svg>